<svg xmlns="http://www.w3.org/2000/svg" viewBox="0 0 100 100" width="128" height="128">
  <!-- Outer decorative double circles -->
  <circle cx="50" cy="50" r="46" fill="#FFFBEB" stroke="#E65100" stroke-width="3"/>
  <circle cx="50" cy="50" r="42" fill="none" stroke="#F57C00" stroke-width="1" stroke-dasharray="2 2"/>

  <!-- Stylized Guntur Chili (Red) -->
  <path d="M38 32 C35 34 38 45 41 53 C44 61 52 72 65 74 C62 70 54 62 50 54 C46 46 41 35 38 32 Z" fill="#D84315"/>
  <path d="M37 31 C33 33 37 44 40 52 C43 60 51 71 64 73 C65 73 66 72 65 71 C61 68 53 60 49 52 C45 44 40 33 37 31 Z" fill="#C62828"/>
  <!-- Chili Stem (Green) -->
  <path d="M37 31 C38 28 41 27 43 28 C42 29 39 30 37 31 Z" fill="#2E7D32" stroke="#2E7D32" stroke-width="1"/>

  <!-- Stylized Gongura Leaf (Green) -->
  <path d="M52 26 C43 32 46 45 48 52 C50 59 56 68 66 70 C63 66 57 58 54 51 C51 44 48 35 52 26 Z" fill="#388E3C"/>
  <path d="M54 27 C46 33 48 46 50 53 C52 60 58 69 68 71 C69 71 70 70 69 69 C65 66 59 58 56 51 C53 44 50 35 54 27 Z" fill="#2E7D32"/>
  <!-- Leaf stem -->
  <path d="M66 70 C68 73 70 76 72 79" stroke="#2E7D32" stroke-width="2" stroke-linecap="round"/>

  <!-- GG Initials in elegant serif style -->
  <text x="50" y="88" font-family="'Georgia', 'Times New Roman', serif" font-size="14" font-weight="bold" fill="#D84315" text-anchor="middle" letter-spacing="1">GG</text>
</svg>
